<svg width="89" height="78" viewBox="0 0 89 78" fill="none" xmlns="http://www.w3.org/2000/svg">
<path d="M44.7382 77.8256C69.1181 77.8256 88.8819 60.4506 88.8819 39.0174C88.8819 17.5843 69.1181 0.20929 44.7382 0.20929C20.3583 0.20929 0.594482 17.5843 0.594482 39.0174C0.594482 60.4506 20.3583 77.8256 44.7382 77.8256Z" fill="#BF5E5E"/>
<path d="M33.8586 20.7776H39.1835V45.7846C39.1835 49.164 38.0247 51.8081 35.7071 53.7159C33.408 55.6242 30.3363 56.5784 26.4921 56.5784C22.5008 56.5784 19.3924 55.6806 17.1668 53.8856C14.9412 52.0912 13.8284 49.5764 13.8284 46.3424H19.1257C19.1257 48.3635 19.751 49.9401 21.0018 51.0723C22.2709 52.204 24.101 52.77 26.4921 52.77C28.681 52.77 30.4467 52.1636 31.7894 50.9507C33.1505 49.7383 33.8402 48.0406 33.8586 45.8575V20.7776ZM60.0414 40.3515C55.4981 39.2034 52.1873 37.7966 50.109 36.1311C48.049 34.4494 47.019 32.3797 47.019 29.9218C47.019 27.1406 48.2789 24.8444 50.7988 23.0334C53.3368 21.2061 56.6293 20.2925 60.6758 20.2925C63.4351 20.2925 65.8907 20.7615 68.0425 21.6993C70.2126 22.6372 71.8866 23.9308 73.0637 25.5801C74.2592 27.2295 74.8572 29.0324 74.8572 30.989H69.5322C69.5322 28.8546 68.7594 27.181 67.215 25.9682C65.6694 24.7393 63.4899 24.1249 60.6758 24.1249C58.0643 24.1249 56.0225 24.6342 54.551 25.6529C53.0978 26.6555 52.3715 28.0542 52.3715 29.849C52.3715 31.2882 53.0614 32.509 54.4404 33.5116C55.8383 34.4979 58.202 35.4034 61.5311 36.2281C64.8789 37.0528 67.4904 37.9664 69.3669 38.9689C71.2609 39.9553 72.6594 41.1115 73.5605 42.4374C74.4799 43.7634 74.9396 45.3238 74.9396 47.1185C74.9396 49.981 73.6706 52.2769 71.1326 54.0072C68.594 55.721 65.2009 56.5784 60.9519 56.5784C58.1926 56.5784 55.6176 56.1174 53.2267 55.1958C50.8353 54.2577 48.9872 52.9801 47.6811 51.3631C46.3936 49.7461 45.7499 47.9113 45.7499 45.8575H51.0749C51.0749 47.992 51.9666 49.6814 53.7506 50.9269C55.5534 52.1558 57.9536 52.77 60.9519 52.77C63.7477 52.77 65.8907 52.2686 67.3804 51.2664C68.8701 50.2635 69.6152 48.8975 69.6152 47.1672C69.6152 45.437 68.9254 44.1029 67.5458 43.1651C66.1661 42.2111 63.6647 41.2732 60.0414 40.3515Z" fill="black"/>
</svg>
